{
  "accessors": [
    {
      "bufferView": 2,
      "componentType": 5126,
      "count": 5676,
      "max": [
        0.36252099275588989,
        0.51303797960281372,
        1.0525829792022705
      ],
      "min": [
        -0.36252099275588989,
        -0.48232200741767883,
        0.00014600000577047467
      ],
      "type": "VEC3"
    },
    {
      "bufferView": 2,
      "byteOffset": 68112,
      "componentType": 5126,
      "count": 5676,
      "max": [
        0.99994742870330811,
        0.99997341632843018,
        0.9999920129776001
      ],
      "min": [
        -0.99994742870330811,
        -0.99984163045883179,
        -1
      ],
      "type": "VEC3"
    },
    {
      "bufferView": 3,
      "componentType": 5126,
      "count": 5676,
      "max": [
        0.99985033273696899,
        0.99970757961273193,
        0.99825453758239746,
        1
      ],
      "min": [
        -1,
        -0.99970918893814087,
        -0.99825495481491089,
        -1
      ],
      "type": "VEC4"
    },
    {
      "bufferView": 1,
      "componentType": 5126,
      "count": 5676,
      "max": [
        0.9983140230178833,
        0.87805598974227905
      ],
      "min": [
        0.00010900000052060932,
        0.00010900000052060932
      ],
      "type": "VEC2"
    },
    {
      "bufferView": 0,
      "componentType": 5125,
      "count": 33216,
      "max": [
        5675
      ],
      "min": [
        0
      ],
      "type": "SCALAR"
    }
  ],
  "asset": {
    "extras": {
      "author": "emilsvfx (https://sketchfab.com/emilsvfx)",
      "license": "CC-BY-4.0 (http://creativecommons.org/licenses/by/4.0/)",
      "source": "https://sketchfab.com/models/a84cecb600c04eeba60d02f99b8b154b",
      "title": "Rubber Duck"
    },
    "generator": "Sketchfab-3.37.2",
    "version": "2.0"
  },
  "bufferViews": [
    {
      "buffer": 0,
      "byteLength": 132864,
      "byteOffset": 0,
      "name": "floatBufferViews",
      "target": 34963
    },
    {
      "buffer": 0,
      "byteLength": 45408,
      "byteOffset": 132864,
      "byteStride": 8,
      "name": "floatBufferViews",
      "target": 34962
    },
    {
      "buffer": 0,
      "byteLength": 136224,
      "byteOffset": 178272,
      "byteStride": 12,
      "name": "floatBufferViews",
      "target": 34962
    },
    {
      "buffer": 0,
      "byteLength": 90816,
      "byteOffset": 314496,
      "byteStride": 16,
      "name": "floatBufferViews",
      "target": 34962
    }
  ],
  "buffers": [
    {
      "byteLength": 405312,
      "uri": "scene.bin"
    }
  ],
  "images": [
    {
      "uri": "textures/Duck_baseColor.png"
    }
  ],
  "materials": [
    {
      "doubleSided": true,
      "emissiveFactor": [
        0,
        0,
        0
      ],
      "name": "Duck",
      "pbrMetallicRoughness": {
        "baseColorFactor": [
          1,
          1,
          1,
          1
        ],
        "baseColorTexture": {
          "index": 0,
          "texCoord": 0
        },
        "metallicFactor": 0,
        "roughnessFactor": 0.84349154199999998
      }
    }
  ],
  "meshes": [
    {
      "primitives": [
        {
          "attributes": {
            "NORMAL": 1,
            "POSITION": 0,
            "TANGENT": 2,
            "TEXCOORD_0": 3
          },
          "indices": 4,
          "material": 0,
          "mode": 4
        }
      ]
    }
  ],
  "nodes": [
    {
      "children": [
        1
      ],
      "name": "RootNode (gltf orientation matrix)",
      "rotation": [
        -0.70710678118654746,
        -0,
        -0,
        0.70710678118654757
      ]
    },
    {
      "children": [
        2
      ],
      "name": "RootNode (model correction matrix)"
    },
    {
      "children": [
        3
      ],
      "name": "duck.obj.cleaner.materialmerger.gles"
    },
    {
      "mesh": 0,
      "name": ""
    }
  ],
  "samplers": [
    {
      "magFilter": 9729,
      "minFilter": 9987,
      "wrapS": 10497,
      "wrapT": 10497
    }
  ],
  "scene": 0,
  "scenes": [
    {
      "name": "OSG_Scene",
      "nodes": [
        0
      ]
    }
  ],
  "textures": [
    {
      "sampler": 0,
      "source": 0
    }
  ]
}

